<?xml version="1.0" standalone="no"?><!DOCTYPE svg PUBLIC "-//W3C//DTD SVG 1.1//EN" "http://www.w3.org/Graphics/SVG/1.1/DTD/svg11.dtd"><svg class="icon" height="512" viewBox="0 0 1177 1024" version="1.1" xmlns="http://www.w3.org/2000/svg"><path d="M806.4 548.608c-5.8368-73.6768 242.2272-71.68 242.2272-71.68s-192.5632-42.1376-282.9312 32.9216c-114.3296 94.9248 58.1632 155.0336 96.9216 193.792 38.7584 38.7584 42.5984 106.5984-127.8976 110.4384-170.5472 3.8912-290.7136-7.7312-290.7136-7.7312s-33.8432 140.9024-64 215.0912c0 0 327.5776 9.728 459.3152-21.2992 131.7888-31.0272 271.36-135.68 211.2512-255.7952-60.0576-120.1664-238.336-122.112-244.1728-195.7376zM325.7856 0.1536A325.5808 325.5808 0 0 0 0.2048 325.7344c0 179.8144 259.6864 321.6896 325.632 680.3456 92.9792-352.8192 325.5296-500.5312 325.5296-680.3456A325.5808 325.5808 0 0 0 325.7856 0.1536z m0 498.0736a172.4928 172.4928 0 1 1 0-344.9856 172.4928 172.4928 0 0 1 0 344.9856zM1152.3584 144.0768a143.872 143.872 0 1 0-287.7952 0c0 79.4624 114.7392 142.1824 143.872 300.6976 41.1136-155.9552 143.872-221.2352 143.872-300.6976z m-220.16 0a76.2368 76.2368 0 1 1 152.4736 0 76.2368 76.2368 0 0 1-152.4736 0z" /></svg>